# xmcd
#
# Track frame offsets:
#	150
#	13790
#	24465
#	39277
#	49715
#	61960
#	79687
#	101452
#	117707
#	131402
#	155110
#	169147
#	191217
#	200757
#	214270
#	228037
#	252345
#	264915
#	282585
#	312452
#
# Disc length: 4497 seconds
#
# Revision: 1
# Processed by: cddbd v1.5.2PL0 Copyright (c) Steve Scherf et al.
# Submitted via: audiograbber 1.82.02
#
DISCID=22118f14
DTITLE=Various Artist - The Introduction to the Blues
DYEAR=1997
DGENRE=Blues
TTITLE0=B.B. King - Rock Me Baby
TTITLE1=Robert Jr. Lockwood - Take a Walk with Me
TTITLE2=Elmore James - Dust My Broom (I Bleive)
TTITLE3=John Lee Hooker - Walkin' This Highway
TTITLE4=Howlin' Wolf - Moaning at Midnight
TTITLE5=Blind Gary Davis - Samson and Delilar
TTITLE6=Robert Pete Williams - Rolling Stone
TTITLE7=Sleepy John Estes - Rats in My Kitchen
TTITLE8=Lightnin' Hopkins - Mojo Hand
TTITLE9=Z.Z. Hill - Down Home Blues
TTITLE10=Lowell Fulson - Tramp
TTITLE11=Magic Sam - I Need You So Bad
TTITLE12=Junior Wells - Hoodo Man Blues
TTITLE13=Snooks Eaglin - Little More
TTITLE14=Little Sonny - Honest I Do
TTITLE15=Little Milton - Worried Dreamer
TTITLE16=Albert King - Born Under a Bad Sign
TTITLE17=Jimmy Witherspoon - Ain't Nobody's Business
TTITLE18=BObby "Blue Bland" - Double Trouble
TTITLE19=Otis Rush - All Your Love
EXTD=
EXTT0=
EXTT1=
EXTT2=
EXTT3=
EXTT4=
EXTT5=
EXTT6=
EXTT7=
EXTT8=
EXTT9=
EXTT10=
EXTT11=
EXTT12=
EXTT13=
EXTT14=
EXTT15=
EXTT16=
EXTT17=
EXTT18=
EXTT19=
PLAYORDER=
